<svg xmlns="http://www.w3.org/2000/svg" width="375.313" height="95.148" viewBox="0 0 375.313 95.148">
  <path id="Path_3" data-name="Path 3" d="M1990,55.5V68.4s4.759-7.9,17.034-6.729c5.146.492,12.384,9.09,20.783,10.234,12.125,1.652,26.122-13.611,34.513-10.234s7.722,14.2,19.413,15.89c9.309,1.343,16.283-8.556,28.341-6.92s13.881,14.3,29.212,16.574,27.14-10.359,36.048-11.187,18.357,9.52,44.75,17.4,21.153-45.634,49.536-18.909,24.223-11.581,38.311-8.494,10.91-10.944,28.527-14.04,28.845,24.04,28.845,24.04L2365-.91H1990Z" transform="translate(-1990.001 0.91)" fill="#03a9f4"/>
</svg>
